<svg width="41" height="40" viewBox="0 0 41 40" fill="none" xmlns="http://www.w3.org/2000/svg">
<path d="M6.00426 5.85781C9.87627 2.08041 15.0243 0 20.5 0C25.9757 0 31.1237 2.08041 34.9957 5.85781C38.8676 9.63538 41 14.6578 41 20C41 25.3422 38.8676 30.3646 34.9957 34.1422C31.1237 37.9196 25.9757 40 20.5 40C15.0243 40 9.87627 37.9196 6.00426 34.1422C2.13242 30.3646 0 25.3422 0 20C0 14.6578 2.13242 9.63538 6.00426 5.85781ZM20.5 37.5258C30.4053 37.5258 38.4639 29.6638 38.4639 20C38.4639 10.3362 30.4053 2.47423 20.5 2.47423C10.5947 2.47423 2.53608 10.3362 2.53608 20C2.53608 29.6638 10.5947 37.5258 20.5 37.5258Z" fill="#E4E4E4"/>
<path d="M18.1309 9.43555L28.9238 19.9996L18.1309 30.5636L16.3347 28.817L25.3431 19.9996L16.3347 11.1822L18.1309 9.43555Z" fill="#E4E4E4"/>
</svg>
