<svg width="25" height="25" viewBox="0 0 25 25" fill="none" xmlns="http://www.w3.org/2000/svg">
<path d="M12.216 0.102258C5.75822 0.404056 0.662106 5.68269 0.681697 12.0282C0.687662 13.9609 1.16304 15.7852 2.00163 17.397L0.714094 23.5313C0.644446 23.8631 0.949356 24.1536 1.2852 24.0756L7.40932 22.6515C8.9827 23.4207 10.7499 23.865 12.6203 23.893C19.2208 23.992 24.7244 18.8479 24.9302 12.3719C25.1507 5.43009 19.3134 -0.2295 12.216 0.102258ZM19.5234 18.5817C17.7299 20.3421 15.3453 21.3115 12.8089 21.3115C11.3238 21.3115 9.90194 20.9845 8.58271 20.3395L7.72984 19.9225L3.97513 20.7956L4.76548 17.0299L4.3453 16.2223C3.66045 14.9059 3.3132 13.4824 3.3132 11.9914C3.3132 9.50188 4.30092 7.16143 6.09442 5.40104C7.87189 3.65644 10.2954 2.67121 12.8091 2.67121C15.3455 2.67127 17.73 3.64071 19.5235 5.40099C21.317 7.16132 22.3047 9.50177 22.3047 11.9912C22.3047 14.4585 21.3009 16.8372 19.5234 18.5817Z" fill="#53D604"/>
<path d="M18.6947 14.5728L16.3456 13.9108C16.0368 13.8237 15.7042 13.9097 15.4792 14.1348L14.9047 14.7092C14.6625 14.9514 14.295 15.0293 13.9744 14.902C12.8632 14.4606 10.5256 12.4207 9.92869 11.4003C9.75647 11.106 9.78495 10.738 9.99641 10.4694L10.4979 9.83259C10.6944 9.58308 10.7359 9.248 10.6059 8.95957L9.61764 6.76566C9.38091 6.24018 8.69677 6.08722 8.24981 6.45824C7.5942 7.00248 6.81631 7.82952 6.72175 8.74576C6.55502 10.3612 7.26087 12.3975 9.93003 14.8427C13.0136 17.6675 15.483 18.0407 17.0908 17.6584C18.0027 17.4416 18.7314 16.5725 19.1914 15.8609C19.505 15.3757 19.2574 14.7314 18.6947 14.5728Z" fill="#53D604"/>
</svg>
