<svg width="25" height="24" viewBox="0 0 25 24" fill="none" xmlns="http://www.w3.org/2000/svg">
<path d="M12.216 0.0138795C5.75822 0.315677 0.662106 5.59432 0.681697 11.9399C0.687662 13.8726 1.16304 15.6968 2.00163 17.3086L0.714094 23.4429C0.644446 23.7747 0.949356 24.0652 1.2852 23.9872L7.40932 22.5631C8.9827 23.3323 10.7499 23.7766 12.6203 23.8047C19.2208 23.9036 24.7244 18.7596 24.9302 12.2836C25.1507 5.34171 19.3134 -0.317879 12.216 0.0138795ZM19.5234 18.4934C17.7299 20.2537 15.3453 21.2231 12.8089 21.2231C11.3238 21.2231 9.90194 20.8961 8.58271 20.2511L7.72984 19.8341L3.97513 20.7072L4.76548 16.9416L4.3453 16.134C3.66045 14.8176 3.3132 13.394 3.3132 11.903C3.3132 9.4135 4.30092 7.07305 6.09442 5.31266C7.87189 3.56806 10.2954 2.58283 12.8091 2.58283C15.3455 2.58289 17.73 3.55233 19.5235 5.31261C21.317 7.07294 22.3047 9.41339 22.3047 11.9028C22.3047 14.3701 21.3009 16.7488 19.5234 18.4934Z" fill="#C5C5C5"/>
<path d="M18.6944 14.4844L16.3454 13.8224C16.0365 13.7354 15.704 13.8213 15.4789 14.0464L14.9045 14.6208C14.6623 14.8631 14.2947 14.9409 13.9742 14.8136C12.8629 14.3722 10.5254 12.3323 9.92845 11.3119C9.75622 11.0176 9.7847 10.6496 9.99616 10.381L10.4977 9.74421C10.6942 9.49471 10.7356 9.15962 10.6057 8.87119L9.61739 6.67728C9.38067 6.1518 8.69652 5.99884 8.24957 6.36986C7.59396 6.9141 6.81606 7.74115 6.7215 8.65739C6.55478 10.2728 7.26062 12.3091 9.92979 14.7543C13.0134 17.5791 15.4827 17.9523 17.0905 17.5701C18.0024 17.3533 18.7312 16.4841 19.1911 15.7725C19.5047 15.2873 19.2571 14.643 18.6944 14.4844Z" fill="#C5C5C5"/>
</svg>
