<svg width="156" height="134" viewBox="0 0 156 134" fill="none" xmlns="http://www.w3.org/2000/svg">
<path fill-rule="evenodd" clip-rule="evenodd" d="M30.8879 132.291H28.9371V128.727L27.3114 132.291H26.336L24.3852 128.727V131.643H25.0354V132.291H22.7595V131.643H23.4098V128.403L22.7595 128.079V127.431H25.0354L26.6611 130.995L28.2868 127.431H30.5627V128.079L30.2376 128.403V131.643H30.5627L30.8879 132.291ZM149.497 115.119C148.522 115.119 147.546 114.795 146.896 114.471C145.921 114.147 145.271 113.823 144.62 113.175C143.97 112.527 143.645 111.879 143.32 111.231C142.995 110.259 142.669 109.611 142.669 108.639C142.669 107.667 142.995 106.695 143.32 106.047C143.645 105.075 143.97 104.427 144.62 104.103C145.271 103.455 145.921 102.807 146.896 102.483C147.546 102.159 148.522 102.159 149.497 102.159C150.148 102.159 151.123 102.159 151.773 102.483C152.749 102.807 153.399 103.455 154.049 104.103C154.699 104.427 155.025 105.075 155.35 106.047C155.675 106.695 156 107.667 156 108.639C156 109.611 155.675 110.259 155.35 111.231C155.025 111.879 154.699 112.527 154.049 113.175C153.399 113.823 152.749 114.147 151.773 114.471C151.123 114.795 150.148 115.119 149.497 115.119ZM149.497 103.779C148.522 103.779 148.197 103.779 147.546 104.103C146.896 104.427 146.246 104.751 145.921 105.075C145.596 105.723 145.271 106.047 144.945 106.695C144.62 107.343 144.62 107.991 144.62 108.639C144.62 109.287 144.62 109.935 144.945 110.583C145.271 110.907 145.596 111.555 145.921 111.879C146.246 112.527 146.896 112.851 147.546 112.851C148.197 113.175 148.522 113.499 149.497 113.499C150.148 113.499 150.798 113.175 151.123 112.851C151.773 112.851 152.424 112.527 152.749 111.879C153.399 111.555 153.724 110.907 153.724 110.583C154.049 109.935 154.049 109.287 154.049 108.639C154.049 107.991 154.049 107.343 153.724 106.695C153.724 106.047 153.399 105.723 152.749 105.075C152.424 104.751 151.773 104.427 151.123 104.103C150.798 103.779 150.148 103.779 149.497 103.779ZM138.118 110.583C138.443 111.231 138.443 111.555 138.768 112.203C139.093 112.527 139.093 112.851 139.418 113.175C139.743 113.499 140.068 113.499 140.394 113.823C140.719 113.823 141.044 114.147 141.369 114.147V115.767C140.719 115.767 140.068 115.767 139.418 115.443C139.093 115.119 138.768 114.795 138.118 114.471C137.792 113.823 137.467 113.499 137.142 112.851C137.142 112.527 136.817 111.879 136.492 111.555C136.492 111.231 136.167 110.907 136.167 110.907C136.167 110.583 135.842 110.259 135.842 109.935C135.516 110.259 135.516 110.259 135.191 110.583C134.866 110.583 134.866 110.583 134.541 110.583C134.541 110.907 134.216 110.907 133.891 110.907H133.566V114.795H131.615V110.907C131.615 110.907 131.29 110.907 131.29 110.583C130.965 110.583 130.965 110.583 130.965 110.583C130.639 110.259 130.314 109.935 130.314 109.611C129.989 109.287 129.989 108.963 129.989 108.639V108.315C129.989 107.991 129.989 107.667 130.314 107.019C130.639 106.695 130.965 106.371 131.29 106.371C131.29 106.371 131.29 106.371 131.615 106.371C131.615 106.047 131.615 106.047 131.94 106.047V102.159H133.566V106.047C133.891 106.371 133.891 106.371 134.216 106.371C134.541 106.695 134.866 106.695 135.191 106.695C135.191 107.019 135.516 107.019 135.516 107.019C135.842 107.343 135.842 107.343 136.167 107.667C136.167 107.343 136.167 107.343 136.492 107.019L136.817 106.695C137.467 105.723 137.792 105.075 138.118 104.427C138.118 103.779 138.443 102.807 138.443 102.159H140.068C140.068 103.131 140.068 104.103 139.743 104.751C139.418 105.723 138.768 106.695 138.118 107.667C138.118 107.667 137.792 107.991 137.792 108.315C137.467 108.639 137.467 108.639 137.142 108.963C137.467 109.287 137.467 109.611 137.792 109.935C137.792 110.259 137.792 110.259 138.118 110.583ZM132.59 109.287C132.915 109.287 132.915 109.287 133.241 109.287C133.241 109.287 133.566 109.287 133.891 109.287C133.891 108.963 134.216 108.963 134.541 108.963L134.866 108.639C134.541 108.315 134.216 108.315 133.891 107.991C133.241 107.667 132.915 107.667 132.59 107.667C132.265 107.667 131.94 107.667 131.94 107.991C131.615 107.991 131.615 108.315 131.615 108.639C131.615 108.963 131.615 108.963 131.94 108.963C131.94 109.287 131.94 109.287 131.94 109.287C132.265 109.287 132.265 109.287 132.59 109.287ZM128.038 102.159V114.795H126.413V109.287H118.935V114.795H117.309V102.159H118.935V107.667H126.413V102.159H128.038ZM110.481 102.159C111.131 104.103 111.782 106.047 112.432 107.667C112.757 108.315 113.082 109.287 113.407 109.935C113.732 110.583 114.058 111.231 114.383 111.879C114.383 112.527 114.708 113.175 115.033 113.823C115.033 114.147 115.358 114.471 115.358 114.795H113.407C113.407 114.147 113.082 113.499 112.757 112.851C112.432 111.879 112.107 111.231 111.782 110.583C111.456 110.259 110.806 110.259 110.481 110.259C110.156 110.259 109.831 110.259 109.506 110.259C109.18 110.259 108.855 110.583 108.205 110.583L106.905 110.907L105.279 114.795H103.328L104.954 110.583C104.629 110.583 104.303 110.583 104.303 110.583C103.978 110.583 103.653 110.259 103.328 110.259V108.315C103.653 108.315 104.303 108.639 104.629 108.639C104.954 108.963 105.279 108.963 105.604 108.963L108.205 102.159H110.481ZM107.88 108.963H108.205C108.53 108.639 108.855 108.639 109.18 108.639C109.506 108.639 109.831 108.639 110.481 108.639C110.481 108.639 110.481 108.639 110.806 108.639C110.806 108.639 110.806 108.639 111.131 108.639L110.806 108.315L109.506 104.427L107.555 108.963C107.555 108.963 107.555 108.963 107.88 108.963ZM101.377 102.159V114.795H99.7516V105.075L92.2735 114.795H90.6478V102.159H92.2735V111.879L99.7516 102.159H101.377ZM87.1038 107.991C88.0792 108.639 88.7295 109.611 88.7295 110.907C88.7295 111.231 88.4043 111.879 88.4043 112.203C88.0792 113.175 87.4289 113.823 86.7787 114.147C85.8032 114.795 84.8278 114.795 83.8524 114.795H78.9754V108.639C78.9754 108.639 78.6503 108.639 78.3251 108.639C78.3251 108.315 78 108.315 78 108.315V106.695H78.3251C78.6503 106.695 78.9754 106.695 78.9754 106.695V102.159H87.7541V104.103H80.9262C80.9262 104.427 80.9262 104.751 80.9262 105.075C80.9262 105.399 80.9262 105.723 80.9262 106.047C80.9262 106.371 80.9262 106.371 80.9262 106.371C80.9262 106.695 80.9262 107.019 80.9262 107.019C81.2514 107.019 81.9016 106.695 82.2268 106.695C82.5519 106.695 82.877 106.695 82.877 106.695C83.2022 106.695 83.5273 106.695 83.5273 106.695C83.8524 106.695 83.8524 106.695 84.1776 106.695C84.8278 106.695 85.153 106.695 85.8032 107.019C86.1284 107.019 86.7787 107.343 87.1038 107.991ZM86.7787 111.555V111.231C86.7787 110.907 86.7787 110.907 86.7787 110.583C86.7787 110.259 86.7787 109.935 86.4535 109.935C86.4535 109.611 86.4535 109.287 86.1284 109.287C85.8032 108.963 85.4781 108.639 85.153 108.639C84.8278 108.639 84.5027 108.639 84.1776 108.639H83.8524C83.5273 108.639 83.5273 108.639 83.2022 108.639C82.877 108.639 82.5519 108.639 82.2268 108.639C81.9016 108.639 81.2514 108.639 80.9262 108.639V113.175H83.8524C84.5027 113.175 85.153 113.175 85.4781 112.851C86.1284 112.527 86.4535 112.203 86.7787 111.555ZM66.2951 114.795H57.5165V102.159H65.97V104.103H59.1421V107.667C59.7924 107.667 60.1175 107.667 60.4427 107.667C60.7678 107.667 61.093 107.667 61.7432 107.667C62.0684 107.343 62.3935 107.343 62.7186 107.343C63.0438 107.343 63.3689 107.343 63.694 107.667V109.287C63.3689 109.287 63.0438 109.287 62.7186 109.287C62.3935 109.287 62.0684 109.287 61.4181 109.287C61.093 109.611 60.7678 109.611 60.4427 109.611C60.1175 109.611 59.7924 109.611 59.1421 109.287V113.175H66.2951V114.795ZM50.6886 102.159C52.3143 102.159 53.2897 102.807 54.2651 103.455C54.9154 104.427 55.2405 105.723 55.2405 107.019C55.2405 107.667 55.2405 108.315 54.9154 108.639C54.5902 109.287 54.2651 109.611 53.94 109.935C53.2897 110.583 52.9646 110.907 52.3143 110.907C51.664 111.231 51.0138 111.231 50.3635 111.231H47.7624V114.795H45.8116V104.103C45.4865 104.103 45.4865 104.103 45.1613 104.103C44.8362 104.103 44.8362 104.103 44.511 104.103V102.483C44.8362 102.483 45.1613 102.483 45.4865 102.483C45.8116 102.483 45.8116 102.483 46.1367 102.483C46.4619 102.483 46.787 102.483 47.1121 102.483C47.4373 102.483 47.7624 102.483 48.0875 102.483C48.7378 102.159 49.0629 102.159 49.3881 102.159C49.7132 102.159 50.0383 102.159 50.3635 102.159H50.6886ZM53.6148 107.019C53.6148 106.695 53.6148 106.371 53.6148 106.047C53.6148 105.399 53.2897 105.075 53.2897 105.075C52.9646 104.751 52.6394 104.427 52.3143 104.103C51.9892 104.103 51.3389 103.779 50.6886 103.779C50.3635 103.779 49.7132 103.779 49.3881 103.779C48.7378 104.103 48.0875 104.103 47.7624 104.103V109.611H50.3635C50.6886 109.611 51.3389 109.611 51.664 109.287C51.9892 109.287 52.3143 108.963 52.6394 108.963C52.9646 108.639 53.2897 108.315 53.2897 107.991C53.6148 107.667 53.6148 107.343 53.6148 107.019ZM36.3827 115.119C35.7324 115.119 34.757 114.795 34.1067 114.471C33.1313 114.147 32.481 113.823 31.8308 113.175C31.1805 112.527 30.8554 111.879 30.5302 111.231C30.2051 110.259 29.8799 109.611 29.8799 108.639C29.8799 107.667 30.2051 106.695 30.5302 106.047C30.8554 105.075 31.1805 104.427 31.8308 104.103C32.481 103.455 33.1313 102.807 34.1067 102.483C34.757 102.159 35.7324 102.159 36.3827 102.159C37.3581 102.159 38.3335 102.159 38.9837 102.483C39.9591 102.807 40.6094 103.455 41.2597 104.103C41.91 104.427 42.2351 105.075 42.5602 106.047C42.8854 106.695 43.2105 107.667 43.2105 108.639C43.2105 109.611 42.8854 110.259 42.5602 111.231C42.2351 111.879 41.91 112.527 41.2597 113.175C40.6094 113.823 39.9591 114.147 38.9837 114.471C38.3335 114.795 37.3581 115.119 36.3827 115.119ZM36.3827 103.779C35.7324 103.779 35.0821 103.779 34.757 104.103C34.1067 104.427 33.4564 104.751 33.1313 105.075C32.8062 105.723 32.481 106.047 32.1559 106.695C31.8308 107.343 31.8308 107.991 31.8308 108.639C31.8308 109.287 31.8308 109.935 32.1559 110.583C32.481 110.907 32.8062 111.555 33.1313 111.879C33.4564 112.527 34.1067 112.851 34.757 112.851C35.0821 113.175 35.7324 113.499 36.3827 113.499C37.3581 113.499 38.0083 113.175 38.3335 112.851C38.9837 112.851 39.634 112.527 39.9591 111.879C40.2843 111.555 40.6094 110.907 40.9346 110.583C41.2597 109.935 41.2597 109.287 41.2597 108.639C41.2597 107.991 41.2597 107.343 40.9346 106.695C40.6094 106.047 40.2843 105.723 39.9591 105.075C39.634 104.751 38.9837 104.427 38.3335 104.103C38.0083 103.779 37.3581 103.779 36.3827 103.779ZM28.2868 102.159V114.795H26.336V105.075L18.8579 114.795H17.2322V102.159H19.183V111.879L26.336 102.159H28.2868ZM9.75406 102.807C10.4043 102.807 11.3797 102.807 12.03 103.131C12.6803 103.455 13.3306 104.103 13.6557 104.427C14.306 105.075 14.6311 105.723 14.9562 106.371C15.2814 107.019 15.6065 107.667 15.6065 108.639C15.6065 109.287 15.2814 109.935 14.9562 110.583C14.6311 111.555 14.306 111.879 13.6557 112.527C13.3306 113.175 12.6803 113.499 12.03 113.823C11.3797 114.147 10.4043 114.147 9.75406 114.147H8.45352V114.795H6.82784V114.147H5.5273C4.87703 114.147 3.90163 114.147 3.25135 113.823C2.60108 113.499 2.27595 112.851 1.62568 112.527C0.975406 111.879 0.650271 111.231 0.325135 110.583C0.325135 109.935 0 109.287 0 108.639C0 107.667 0.325135 107.019 0.325135 106.371C0.650271 105.723 0.975406 105.075 1.62568 104.427C2.27595 104.103 2.60108 103.455 3.25135 103.131C3.90163 102.807 4.87703 102.807 5.5273 102.807H6.82784V102.159H8.45352V102.807H9.75406ZM6.82784 112.527V104.427H5.5273C5.20217 104.427 4.5519 104.751 3.90163 104.751C3.57649 105.075 3.25135 105.399 2.92622 105.723C2.60108 106.047 2.27595 106.371 1.95081 107.019C1.95081 107.343 1.62568 107.991 1.62568 108.639C1.62568 108.963 1.95081 109.611 1.95081 109.935C2.27595 110.583 2.60108 110.907 2.92622 111.231C3.25135 111.555 3.57649 111.879 3.90163 112.203C4.5519 112.527 5.20217 112.527 5.5273 112.527H6.82784ZM9.75406 112.527C10.4043 112.527 10.7295 112.527 11.3797 112.203C11.7049 111.879 12.3551 111.555 12.6803 111.231C13.0054 110.907 13.3306 110.583 13.3306 109.935C13.6557 109.611 13.6557 108.963 13.6557 108.639C13.6557 107.991 13.6557 107.343 13.3306 107.019C13.3306 106.371 13.0054 106.047 12.6803 105.723C12.3551 105.399 11.7049 105.075 11.3797 104.751C10.7295 104.751 10.4043 104.427 9.75406 104.427H8.45352V112.527H9.75406ZM128.689 127.431L129.014 128.079C129.339 127.755 129.664 127.755 129.664 127.431C129.989 127.431 130.314 127.431 130.639 127.431C131.615 127.431 131.94 127.431 132.59 128.079L132.915 128.403C133.241 128.727 133.241 129.051 133.241 129.375C133.241 129.699 133.241 130.347 133.241 130.671C133.241 130.995 132.915 131.319 132.59 131.643C132.59 131.967 132.265 132.291 131.94 132.291C131.615 132.291 131.29 132.615 130.639 132.615C130.314 132.615 129.989 132.291 129.989 132.291C129.664 132.291 129.339 132.291 129.339 131.967V132.939H129.664V133.911H127.388V132.939H128.038V128.403L127.388 128.079V127.431H128.689ZM129.339 130.995C129.339 131.319 129.664 131.319 129.664 131.319C129.989 131.319 130.314 131.643 130.639 131.643C131.29 131.643 131.615 131.319 131.94 130.995C132.265 130.671 132.265 130.023 132.265 129.699C131.94 129.051 131.94 128.727 131.615 128.727C131.29 128.403 130.965 128.403 130.639 128.403C130.314 128.403 130.314 128.403 130.314 128.403C129.989 128.403 129.989 128.403 129.989 128.403C129.664 128.403 129.664 128.403 129.664 128.727C129.339 128.727 129.339 128.727 129.339 128.727V130.995ZM118.609 127.431L118.935 127.755C119.26 127.755 119.26 127.431 119.585 127.431C119.91 127.431 120.235 127.431 120.56 127.431H120.885C121.211 127.431 121.211 127.431 121.536 127.431L121.861 127.755C121.861 127.755 122.186 127.755 122.186 128.079C122.511 127.755 122.511 127.755 122.836 127.431C123.161 127.431 123.486 127.431 124.137 127.431C124.462 127.431 124.787 127.431 124.787 127.431C125.112 127.431 125.437 127.755 125.437 127.755C125.762 128.079 125.762 128.079 126.088 128.403C126.088 128.403 126.088 128.727 126.088 129.051C126.088 129.051 126.088 129.051 126.088 129.375L126.413 129.699V131.643H126.738V132.291H125.112V129.699C125.112 129.375 125.112 129.375 125.112 129.051C125.112 129.051 124.787 128.727 124.787 128.403C124.462 128.403 124.137 128.403 123.812 128.403C123.486 128.403 123.486 128.403 123.161 128.403C123.161 128.403 122.836 128.727 122.511 128.727L122.836 129.051C122.836 129.375 122.836 129.375 122.836 129.375V129.699V131.643H123.486V132.291H121.536V129.699V129.375C121.536 129.051 121.536 128.727 121.211 128.727C121.211 128.403 120.885 128.403 120.235 128.403C120.235 128.403 119.91 128.403 119.585 128.403L119.26 128.727V131.643H119.585V132.291H117.309V131.643H117.959V128.403L117.309 128.079V127.431H118.609ZM110.806 127.431H112.432V129.375H115.033V128.403L114.383 128.079V127.431H116.659V128.079L116.333 128.403V131.643H116.659V132.291H115.033V130.347H112.432V131.643H113.082V132.291H110.806V131.643H111.456V128.403L110.806 128.079V127.431ZM109.831 131.967V132.291C109.506 132.291 109.18 132.291 108.855 132.615C108.53 132.615 107.88 132.615 107.555 132.615C107.23 132.615 106.905 132.615 106.579 132.291C106.254 132.291 105.929 131.967 105.604 131.967C105.279 131.643 104.954 130.995 104.954 130.347C104.629 129.699 104.629 129.375 104.954 129.051C104.954 128.727 105.279 128.403 105.604 128.079C105.929 127.755 106.254 127.755 106.579 127.431C106.905 127.431 107.23 127.431 107.555 127.431C107.88 127.431 108.205 127.431 108.53 127.431C108.855 127.431 109.18 127.755 109.18 127.755C109.831 128.079 109.831 128.403 110.156 128.727C110.156 129.051 110.156 129.375 109.831 129.699C109.831 129.699 109.831 130.023 109.506 130.023C109.506 130.023 109.18 130.347 108.855 130.347C108.855 130.347 108.53 130.347 108.205 130.347C108.205 130.347 107.88 130.347 107.555 130.347C107.555 130.347 107.23 130.347 106.905 130.347H106.579H105.929C106.254 130.671 106.254 130.671 106.254 130.995L106.579 131.319C106.905 131.319 106.905 131.319 107.23 131.643C107.23 131.643 107.555 131.643 107.88 131.643C107.88 131.643 108.205 131.643 108.53 131.643C108.855 131.319 109.18 131.319 109.506 131.319L109.831 131.967ZM105.929 129.699C106.579 129.699 106.905 129.699 107.555 129.699C107.88 129.699 107.88 129.699 108.205 129.375C108.53 129.375 108.53 129.375 108.855 129.375C108.855 129.051 108.855 129.051 108.855 129.051C108.855 128.727 108.855 128.727 108.855 128.727C108.53 128.727 108.53 128.727 108.53 128.403H108.205C107.88 128.403 107.88 128.403 107.555 128.403C107.23 128.403 106.579 128.403 106.579 128.727C106.254 128.727 106.254 128.727 106.254 129.051C106.254 129.375 105.929 129.375 105.929 129.699ZM99.7516 127.431L99.4264 130.023C99.4264 130.347 99.7516 130.347 99.7516 130.671C99.7516 130.995 99.7516 130.995 100.077 131.319C100.077 131.319 100.402 131.643 100.727 131.643C101.052 131.643 101.377 131.643 101.702 131.319C101.702 131.319 102.028 131.319 102.353 130.995V128.403H101.702V127.431H103.978V128.403H103.328V130.671C103.328 130.995 103.328 130.995 103.653 130.995C103.653 131.319 103.653 131.319 103.653 131.643C103.978 131.643 103.978 131.643 104.303 131.643C104.303 131.967 104.303 132.615 104.303 132.939C104.303 133.263 103.978 133.587 103.978 133.911L103.003 133.587C103.003 133.263 103.003 133.263 103.328 132.939C103.328 132.939 103.328 132.615 103.328 132.291C103.003 132.291 103.003 132.291 102.678 132.291C102.678 131.967 102.678 131.967 102.353 131.967C102.353 131.967 102.028 132.291 101.702 132.291C101.377 132.291 101.052 132.615 100.727 132.615C100.402 132.615 100.077 132.291 99.7516 132.291C99.4264 132.291 99.4264 132.291 99.1013 131.967C98.7762 131.967 98.7762 131.643 98.7762 131.643C98.451 131.319 98.451 130.995 98.451 130.671C98.451 130.671 98.451 130.671 98.451 130.347C98.451 130.347 98.451 130.347 98.451 130.023V128.403L97.8008 128.079V127.431H99.7516ZM90.6803 127.431V130.023V130.347C90.6803 130.347 90.6803 130.347 90.6803 130.671C90.6803 130.995 91.0054 130.995 91.0054 131.319C91.3306 131.319 91.6557 131.643 91.9808 131.643C92.306 131.643 92.6311 131.643 92.6311 131.319C92.9562 131.319 93.2814 131.319 93.2814 130.995V128.403H92.6311V127.431H95.2322V128.403H94.5819V131.643H95.2322V132.291H93.6065V131.967C93.2814 131.967 92.9562 132.291 92.6311 132.291C92.6311 132.291 92.306 132.615 91.9808 132.615C91.3306 132.615 91.3306 132.615 91.0054 132.291C90.6803 132.291 90.3551 132.291 90.3551 131.967C90.03 131.967 90.03 131.643 89.7049 131.643C89.7049 131.319 89.7049 130.995 89.7049 130.671C89.3797 130.671 89.3797 130.671 89.3797 130.347V128.403L89.0546 128.079V127.431H90.6803ZM91.3306 125.811C91.3306 126.135 91.3306 126.135 91.6557 126.135C91.6557 126.135 91.6557 126.135 91.9808 126.135C92.306 126.135 92.306 126.135 92.306 126.135V125.811H93.2814C93.2814 126.135 93.2814 126.135 93.2814 126.459C92.9562 126.459 92.9562 126.783 92.9562 126.783C92.9562 126.783 92.6311 126.783 92.6311 127.107C92.306 127.107 92.306 127.107 91.9808 127.107C91.6557 127.107 91.6557 127.107 91.3306 127.107C91.3306 126.783 91.0054 126.783 91.0054 126.783C90.6803 126.459 90.6803 126.135 90.6803 125.811H91.3306ZM83.8524 127.431V130.023V130.347C83.8524 130.347 83.8524 130.347 83.8524 130.671C83.8524 130.995 84.1776 130.995 84.1776 131.319C84.5027 131.319 84.8278 131.643 85.153 131.643C85.4781 131.643 85.8032 131.643 85.8032 131.319C86.1284 131.319 86.4535 131.319 86.4535 130.995V128.403H86.1284V127.431H88.4043V128.403H87.7541V131.643H88.4043V132.291H87.1038L86.7787 131.967C86.4535 131.967 86.4535 132.291 86.1284 132.291C85.8032 132.291 85.4781 132.615 85.153 132.615C84.8278 132.615 84.5027 132.615 84.1776 132.291C83.8524 132.291 83.5273 132.291 83.5273 131.967C83.2022 131.967 83.2022 131.643 82.877 131.643C82.877 131.319 82.877 130.995 82.877 130.671C82.877 130.671 82.877 130.671 82.877 130.347V128.403L82.2268 128.079V127.431H83.8524ZM81.5765 132.291H80.2759L78.9754 130.347H77.6749V131.643H78.3251V132.291H76.0492L75.7241 131.643H76.3743V128.403L75.7241 128.079V127.431H77.6749V129.375H78.6503L79.3005 128.403C79.3005 128.079 79.6257 127.755 79.9508 127.431H80.2759C80.6011 127.431 80.6011 127.431 80.9262 127.431C80.9262 127.431 80.9262 127.431 81.2514 127.431C81.2514 127.431 81.2514 127.431 81.5765 127.431L81.2514 128.403H80.9262H80.6011L80.2759 128.727L79.6257 129.699L80.9262 131.643H81.5765V132.291ZM74.0984 129.375V128.403H73.7732C73.4481 128.403 73.4481 128.403 73.4481 128.403C73.123 128.403 72.7978 128.403 72.4727 128.403C72.1476 128.403 72.1476 128.727 71.8224 128.727C71.8224 129.051 71.8224 129.051 71.4973 129.375C71.4973 129.699 71.4973 129.699 71.4973 130.023C71.4973 130.347 71.8224 130.347 71.8224 130.671C71.8224 130.671 71.8224 130.995 72.1476 130.995C72.4727 131.319 72.7978 131.643 73.4481 131.643C73.4481 131.643 73.7732 131.319 74.0984 131.319C74.4235 131.319 74.7486 131.319 75.0738 131.319V131.967C74.7486 132.291 74.7486 132.291 74.4235 132.291C74.0984 132.291 73.4481 132.615 73.123 132.615C72.4727 132.615 71.8224 132.291 71.1721 131.967C71.1721 131.643 70.847 131.319 70.847 130.995C70.5219 130.995 70.5219 130.671 70.5219 130.347C70.1967 129.699 70.1967 129.375 70.5219 129.051C70.5219 128.727 70.847 128.403 71.1721 128.079C71.1721 127.755 71.4973 127.755 72.1476 127.431C72.4727 127.431 72.7978 127.431 73.123 127.431C73.4481 127.431 73.7732 127.431 74.0984 127.431C74.4235 127.431 74.7486 127.431 75.0738 127.755V129.375H74.0984ZM63.694 127.431H65.3197V129.375H67.9208V128.403L67.2705 128.079V127.431H69.8716V128.079L69.2213 128.403V131.643H69.8716V132.291H67.9208V130.347H65.6449V131.643H65.97V132.291H63.694V131.643H64.3443V128.403L63.694 128.079V127.431ZM58.817 127.431V130.023V130.347C58.817 130.347 58.817 130.347 58.817 130.671C58.817 130.995 58.817 130.995 59.1421 131.319C59.1421 131.319 59.4673 131.643 60.1175 131.643C60.4427 131.643 60.4427 131.643 60.7678 131.319C61.093 131.319 61.093 131.319 61.4181 130.995V128.403H60.7678V127.431H63.0438V128.403H62.7186V131.643H63.0438V132.291H61.7432L61.4181 131.967C61.4181 131.967 61.093 132.291 60.7678 132.291C60.4427 132.291 60.1175 132.615 59.7924 132.615C59.4673 132.615 59.1421 132.615 58.817 132.291C58.817 132.291 58.4919 132.291 58.1667 131.967L57.8416 131.643C57.8416 131.319 57.5165 130.995 57.5165 130.671C57.5165 130.671 57.5165 130.671 57.5165 130.347V128.403L56.8662 128.079V127.431H58.817ZM51.664 127.431V130.023C51.664 130.347 51.664 130.347 51.664 130.671C51.664 130.995 51.9892 130.995 51.9892 131.319C52.3143 131.319 52.6394 131.643 52.9646 131.643C53.2897 131.643 53.6148 131.643 53.6148 131.319C53.94 131.319 54.2651 131.319 54.2651 130.995V128.403H53.94V127.431H56.2159V128.403H55.5657V130.671C55.5657 130.995 55.5657 130.995 55.5657 130.995C55.5657 131.319 55.8908 131.319 55.8908 131.643H56.2159H56.5411C56.5411 131.967 56.5411 132.615 56.5411 132.939C56.2159 133.263 56.2159 133.587 56.2159 133.911L55.2405 133.587C55.2405 133.263 55.2405 133.263 55.2405 132.939C55.2405 132.939 55.2405 132.615 55.2405 132.291H54.9154C54.9154 131.967 54.5902 131.967 54.5902 131.967C54.2651 131.967 54.2651 132.291 53.94 132.291C53.6148 132.291 53.2897 132.615 52.9646 132.615C52.6394 132.615 52.3143 132.291 51.9892 132.291C51.664 132.291 51.3389 132.291 51.3389 131.967C51.0138 131.967 51.0138 131.643 50.6886 131.643C50.6886 131.319 50.6886 130.995 50.6886 130.671C50.6886 130.671 50.6886 130.671 50.6886 130.347C50.6886 130.347 50.6886 130.347 50.6886 130.023V128.403L50.0383 128.079V127.431H51.664ZM45.1613 127.431V130.023V130.347C45.1613 130.347 45.1613 130.347 45.1613 130.671C45.1613 130.995 45.1613 130.995 45.4865 131.319C45.4865 131.319 45.8116 131.643 46.4619 131.643C46.4619 131.643 46.787 131.643 47.1121 131.319C47.4373 131.319 47.4373 131.319 47.7624 130.995V128.403H47.1121V127.431H49.3881V128.403H49.0629V131.643H49.3881V132.291H48.0875L47.7624 131.967C47.7624 131.967 47.4373 132.291 47.1121 132.291C46.787 132.291 46.4619 132.615 46.1367 132.615C45.8116 132.615 45.4865 132.615 45.1613 132.291C45.1613 132.291 44.8362 132.291 44.511 131.967L44.1859 131.643C44.1859 131.319 43.8608 130.995 43.8608 130.671C43.8608 130.671 43.8608 130.671 43.8608 130.347V128.403L43.2105 128.079V127.431H45.1613ZM37.6832 125.163V125.487C38.3335 125.487 38.9837 125.487 39.634 125.487C39.9591 125.487 40.2843 125.811 40.9346 125.811C41.2597 126.135 41.5848 126.459 41.91 126.783C42.2351 127.431 42.2351 127.755 42.2351 128.403C42.2351 128.727 42.5602 128.727 42.5602 129.051C42.5602 129.375 42.5602 129.699 42.2351 130.023C42.2351 130.347 42.2351 130.671 42.2351 130.995C41.91 131.319 41.91 131.319 41.5848 131.643C41.5848 131.967 41.2597 131.967 40.9346 132.291C40.6094 132.291 40.2843 132.615 39.634 132.615C39.3089 132.615 38.9837 132.615 38.6586 132.291C38.3335 132.291 38.0083 132.291 38.0083 131.967C37.6832 131.967 37.3581 131.643 37.3581 131.319C37.3581 130.995 37.0329 130.995 37.0329 130.347C37.0329 129.699 37.0329 128.727 37.6832 128.403C37.6832 128.079 38.0083 127.755 38.3335 127.755C38.6586 127.755 39.3089 127.755 39.634 127.755C40.2843 127.755 40.6094 127.755 40.9346 128.079C40.9346 127.431 40.6094 126.783 39.9591 126.459C39.634 126.459 39.3089 126.135 38.9837 126.135C38.6586 126.135 38.3335 126.135 37.6832 126.135V125.163ZM41.2597 129.051C40.9346 128.727 40.6094 128.727 40.2843 128.727C40.2843 128.727 39.9591 128.727 39.634 128.727C38.9837 128.727 38.6586 128.727 38.3335 129.051C38.3335 129.375 38.0083 129.699 38.3335 130.347C38.3335 130.671 38.3335 130.671 38.3335 130.995L38.6586 131.319C38.6586 131.319 38.9837 131.319 38.9837 131.643C39.3089 131.643 39.3089 131.643 39.634 131.643C39.9591 131.643 40.2843 131.643 40.2843 131.319C40.6094 131.319 40.6094 130.995 40.9346 130.671C40.9346 130.671 41.2597 130.347 41.2597 130.023C41.2597 129.699 41.2597 129.375 41.2597 129.051ZM36.3827 131.967V132.291C36.0575 132.291 35.7324 132.291 35.4073 132.615C34.757 132.615 34.4318 132.615 34.1067 132.615C33.7816 132.615 33.4564 132.615 33.1313 132.291C32.8062 132.291 32.481 131.967 32.1559 131.967C31.8308 131.643 31.5056 130.995 31.1805 130.347C31.1805 129.699 31.1805 129.375 31.5056 129.051C31.5056 128.727 31.8308 128.403 32.1559 128.079C32.1559 127.755 32.481 127.755 32.8062 127.431C33.4564 127.431 33.7816 127.431 34.1067 127.431C34.4318 127.431 34.757 127.431 35.0821 127.431C35.4073 127.431 35.4073 127.755 35.7324 127.755C36.0575 128.079 36.3827 128.403 36.3827 128.727C36.7078 129.051 36.3827 129.375 36.3827 129.699L36.0575 130.023C35.7324 130.023 35.7324 130.347 35.4073 130.347C35.4073 130.347 35.0821 130.347 34.757 130.347C34.4318 130.347 34.4318 130.347 34.1067 130.347C33.7816 130.347 33.7816 130.347 33.4564 130.347C33.1313 130.347 33.1313 130.347 32.8062 130.347H32.481C32.481 130.671 32.8062 130.671 32.8062 130.995L33.1313 131.319C33.4564 131.319 33.4564 131.319 33.7816 131.643H34.1067C34.4318 131.643 34.757 131.643 35.0821 131.643C35.4073 131.319 35.7324 131.319 36.0575 131.319L36.3827 131.967ZM32.481 129.699C33.1313 129.699 33.4564 129.699 33.7816 129.699C34.1067 129.699 34.4318 129.699 34.757 129.375C35.0821 129.375 35.0821 129.375 35.4073 129.375C35.4073 129.051 35.4073 129.051 35.4073 129.051C35.4073 128.727 35.4073 128.727 35.0821 128.727C35.0821 128.727 35.0821 128.727 35.0821 128.403C34.757 128.403 34.757 128.403 34.757 128.403C34.4318 128.403 34.4318 128.403 34.1067 128.403C33.4564 128.403 33.1313 128.403 33.1313 128.727C32.8062 128.727 32.8062 128.727 32.8062 129.051C32.481 129.375 32.481 129.375 32.481 129.699Z" fill="#B5CB4D"/>
<path fill-rule="evenodd" clip-rule="evenodd" d="M98.1853 47.2169C95.9413 48.5596 94.146 50.7974 92.7996 53.4827C95.2681 56.8393 96.3901 59.3009 100.429 61.5386C103.122 63.1051 106.264 63.5526 108.508 63.3289C108.508 62.6575 107.61 60.8673 106.937 60.4198C105.366 58.6295 103.795 61.0911 97.0633 53.7065C97.7365 51.9162 100.878 49.4547 103.571 48.7834C111.201 47.2169 122.421 55.0491 126.012 59.3009C122.421 62.6575 118.606 65.7904 112.996 68.2519C110.079 69.3708 106.488 70.2659 103.122 69.5946C100.654 68.9233 97.7365 66.4617 97.0633 64.6715C96.1657 62.21 93.9216 61.5386 91.4532 61.7624C93.6972 67.8044 96.3901 70.9373 102.673 73.175C115.689 74.7415 125.54 64.6715 131.151 59.5247C130.702 57.7344 124.643 53.0351 122.848 51.6925C115.24 46.3218 107.386 42.5176 98.1853 47.2169ZM57.8148 47.2169C59.8344 48.5596 61.6297 50.7974 63.2005 53.4827C60.5076 56.8393 59.61 59.3009 55.5707 61.5386C52.8779 63.1051 49.7362 63.5526 47.2677 63.3289C47.4921 62.6575 48.3897 60.8673 49.063 60.4198C50.6338 58.6295 52.2046 61.0911 58.9368 53.7065C58.2636 51.9162 55.1219 49.4547 52.429 48.7834C44.7993 47.2169 33.3546 55.0491 29.7641 59.3009C33.579 62.6575 37.1695 65.7904 43.004 68.2519C45.9213 69.3708 49.2874 70.2659 52.6535 69.5946C55.1219 68.9233 58.2636 66.4617 58.9368 64.6715C59.8344 62.21 61.8541 61.5386 64.5469 61.7624C62.0785 67.8044 59.61 70.9373 53.3267 73.175C40.3112 74.7415 30.4597 64.6715 24.8496 59.5247C25.2984 57.7344 31.3574 53.0351 33.1526 51.6925C40.7824 46.3218 48.6142 42.5176 57.8148 47.2169ZM81.153 58.8533C87.4363 60.4198 92.3732 67.3568 92.5976 76.0841C91.4756 76.7555 90.1292 77.203 88.7827 77.8744C85.6411 79.6646 84.0702 82.7974 83.6214 86.6017C82.275 87.7205 80.9286 88.8394 79.5821 89.7345C79.3577 82.5737 82.0506 76.7555 88.5583 73.3988C87.4363 68.2519 84.2946 64.8953 80.4797 63.7764C80.4797 61.9862 80.7041 60.4198 81.153 58.8533ZM68.3618 73.3988C74.8696 76.7555 77.3381 82.3499 77.3381 89.5107C75.9916 88.8394 74.6452 87.9443 73.2988 86.8254C72.8499 82.7974 71.2791 79.8883 68.1374 77.8744C66.791 77.203 65.4446 76.5317 64.3225 76.0841C64.7714 67.5806 69.4839 60.4198 75.7672 58.8533C75.9916 60.6435 76.216 62.4338 76.216 63.7764C72.4011 64.8953 69.4839 68.4757 68.3618 73.3988ZM51.0826 40.2798C48.8386 36.4756 47.7165 32.0001 47.7165 27.077V23.9441L49.9606 23.7204C51.7558 23.4966 53.9999 23.2728 55.7951 23.2728C55.5707 24.3917 55.1219 25.5106 54.8975 26.6294C53.7755 26.8532 51.9802 27.077 50.6338 27.3008C50.8582 33.119 52.2046 37.3707 54.6731 40.9512C54.8975 41.1749 55.7951 42.2938 55.7951 42.5176C54.2243 42.5176 52.6535 42.7414 51.0826 40.2798ZM105.142 40.2798C107.61 36.4756 108.508 32.0001 108.508 27.077V23.9441L106.264 23.7204C104.469 23.4966 102.225 23.2728 100.429 23.2728C100.878 24.3917 101.103 25.5106 101.327 26.6294C102.673 26.8532 104.244 27.077 105.591 27.3008C105.591 33.119 104.02 37.3707 101.551 40.9512C101.327 41.1749 100.654 42.2938 100.429 42.5176C102.225 42.5176 103.795 42.7414 105.142 40.2798ZM81.6018 41.8463C81.153 43.8603 80.4797 44.7554 79.5821 46.5456C79.1333 47.4407 78.6845 48.3358 78.4601 49.2309C78.2357 48.3358 77.7869 47.4407 77.3381 46.5456C76.4404 44.7554 75.7672 43.8603 75.3184 41.8463C74.6452 37.5945 76.6648 33.119 74.8696 29.3148C73.972 26.8532 71.7279 25.5106 69.2595 24.8392C67.2398 24.3917 65.2202 23.9441 62.9761 23.7204C66.1178 14.5455 72.8499 6.04198 78.4601 4.02799C82.0506 6.26575 86.5387 10.7413 88.7827 14.0979C90.8024 17.4546 92.3732 20.1399 93.4953 23.7204C91.4756 23.9441 89.6804 24.3917 87.6607 24.8392C85.1923 25.5106 82.9482 26.8532 82.0506 29.3148C80.2553 33.119 82.275 37.5945 81.6018 41.8463ZM82.7238 50.7974C82.275 51.0211 82.0506 51.0211 81.8262 51.0211C82.4994 47.8883 84.0702 47.2169 85.1923 42.5176C86.5387 35.3567 82.0506 30.4337 88.7827 28.4197C90.8024 27.7483 92.5976 27.3008 94.3929 27.077C94.6173 27.077 94.6173 27.077 94.8417 27.077C95.7393 26.8532 96.6369 26.8532 97.759 26.8532C97.759 26.6294 97.9834 26.6294 97.9834 26.6294C97.9834 26.6294 97.9834 26.6294 97.9834 26.4057C96.8613 21.035 95.0661 17.007 91.9244 12.084C89.2316 8.05597 84.2946 3.35665 80.2553 0.895108L78.2357 0L77.1137 0.671331C69.9327 4.02798 63.2005 13.2028 60.2832 20.3637C59.61 22.3777 58.9368 24.6155 58.2636 26.6294C58.7124 26.8532 60.0588 26.8532 62.0785 27.077C65.4446 27.7483 66.1178 27.7483 68.1374 28.4197C74.8696 30.4337 70.3815 35.3567 71.7279 42.5176C72.8499 47.2169 74.4208 47.8883 75.094 51.0211C73.7476 50.7974 72.4011 50.3498 71.0547 49.9022C68.5862 48.5596 66.3422 46.7694 64.5469 44.3078C64.0981 43.8603 63.8737 43.4127 63.6493 42.9652C61.6297 39.6085 60.9565 35.3567 61.6297 29.9861C60.9565 29.9861 60.2832 29.9861 59.8344 29.7623C59.1612 29.7623 58.488 29.7623 57.8148 29.7623C57.366 33.7903 57.5904 38.0421 58.9368 41.8463C59.61 43.4127 60.5076 44.9792 61.6297 46.5456C66.5666 53.4827 75.3184 56.6156 83.6214 54.3778C88.5583 53.0351 92.822 49.9022 95.5149 45.6505C98.4322 40.7274 99.1054 35.133 98.4322 29.7623C97.3102 29.7623 94.8417 30.6574 95.0661 33.119C95.2681 42.9652 89.456 49.0071 82.7238 50.7974Z" fill="#B5CB4D"/>
</svg>
