<svg width="57" height="57" viewBox="0 0 57 57" fill="none" xmlns="http://www.w3.org/2000/svg">
<g filter="url(#filter0_d)">
<circle cx="28.5" cy="28.5" r="8.5" fill="url(#paint0_linear)"/>
</g>
<circle cx="28.5" cy="28.5" r="11" stroke="#B5CC48"/>
<path d="M32.9522 30.9581C32.9269 30.8819 32.766 30.7696 32.4695 30.6215C32.3891 30.5748 32.2747 30.5114 32.1266 30.4309C31.9784 30.3504 31.8438 30.2763 31.7232 30.2085C31.6023 30.1408 31.4891 30.0751 31.3833 30.0117C31.3664 29.999 31.3135 29.962 31.2245 29.9004C31.1355 29.8391 31.0604 29.7935 30.9989 29.7638C30.9375 29.7343 30.8771 29.7194 30.8178 29.7194C30.7332 29.7194 30.6274 29.7798 30.5004 29.9004C30.3734 30.0212 30.2569 30.1524 30.1511 30.2944C30.0452 30.4363 29.933 30.5675 29.8145 30.6882C29.6959 30.809 29.5984 30.8693 29.5223 30.8693C29.484 30.8693 29.4364 30.8586 29.3793 30.8376C29.3222 30.8164 29.2787 30.7983 29.2489 30.7837C29.2194 30.7688 29.1687 30.7392 29.0966 30.6946C29.0244 30.6501 28.9843 30.6258 28.9758 30.6215C28.3957 30.2996 27.8981 29.9311 27.483 29.5162C27.0681 29.1011 26.6996 28.6035 26.3777 28.0233C26.3735 28.0148 26.3491 27.9746 26.3047 27.9026C26.2602 27.8306 26.2305 27.7799 26.2157 27.7501C26.2009 27.7205 26.1829 27.6771 26.1617 27.6199C26.1406 27.5628 26.13 27.5152 26.13 27.477C26.13 27.4008 26.1903 27.3034 26.3111 27.1848C26.4317 27.0662 26.5631 26.954 26.7049 26.8482C26.8468 26.7424 26.978 26.6259 27.0987 26.4989C27.2194 26.3718 27.2797 26.266 27.2797 26.1813C27.2797 26.122 27.2649 26.0616 27.2353 26.0002C27.2057 25.9387 27.1602 25.8637 27.0987 25.7747C27.0373 25.6857 27.0002 25.6329 26.9875 25.6158C26.924 25.51 26.8585 25.3968 26.7906 25.2761C26.7228 25.1554 26.6487 25.0208 26.5682 24.8726C26.4878 24.7245 26.4243 24.6101 26.3777 24.5297C26.2296 24.2333 26.1173 24.0723 26.0411 24.0469C26.0114 24.0342 25.9669 24.0278 25.9077 24.0278C25.7933 24.0278 25.644 24.049 25.4598 24.0914C25.2756 24.1337 25.1306 24.1781 25.0247 24.2248C24.8129 24.3137 24.5885 24.572 24.3513 24.9997C24.1353 25.3977 24.0273 25.7916 24.0273 26.1812C24.0273 26.2954 24.0348 26.4066 24.0496 26.5147C24.0644 26.6227 24.0909 26.7444 24.129 26.88C24.1671 27.0155 24.1978 27.1161 24.2211 27.1817C24.2443 27.2473 24.2877 27.3648 24.3513 27.5342C24.4147 27.7037 24.4529 27.8074 24.4656 27.8455C24.6138 28.2605 24.7896 28.6311 24.9928 28.9572C25.3272 29.4992 25.7836 30.0594 26.3616 30.6375C26.9397 31.2156 27.4998 31.6719 28.0419 32.0065C28.368 32.2097 28.7386 32.3854 29.1536 32.5337C29.1917 32.5464 29.2955 32.5844 29.4648 32.6481C29.6342 32.7116 29.7518 32.755 29.8174 32.7783C29.883 32.8016 29.9836 32.8324 30.119 32.8706C30.2547 32.9087 30.3764 32.9352 30.4844 32.9501C30.5924 32.9647 30.7036 32.9723 30.8179 32.9723C31.2074 32.9723 31.6014 32.8642 31.9994 32.6483C32.4271 32.4112 32.6853 32.1867 32.7743 31.9748C32.821 31.869 32.8653 31.724 32.9077 31.5397C32.9501 31.3555 32.9712 31.2063 32.9712 31.0919C32.9714 31.0324 32.965 30.988 32.9522 30.9581Z" fill="white"/>
<defs>
<filter id="filter0_d" x="0" y="0" width="57" height="57" filterUnits="userSpaceOnUse" color-interpolation-filters="sRGB">
<feFlood flood-opacity="0" result="BackgroundImageFix"/>
<feColorMatrix in="SourceAlpha" type="matrix" values="0 0 0 0 0 0 0 0 0 0 0 0 0 0 0 0 0 0 127 0"/>
<feOffset/>
<feGaussianBlur stdDeviation="10"/>
<feColorMatrix type="matrix" values="0 0 0 0 0.709804 0 0 0 0 0.843137 0 0 0 0 0.0901961 0 0 0 0.38 0"/>
<feBlend mode="normal" in2="BackgroundImageFix" result="effect1_dropShadow"/>
<feBlend mode="normal" in="SourceGraphic" in2="effect1_dropShadow" result="shape"/>
</filter>
<linearGradient id="paint0_linear" x1="28.5" y1="20" x2="28.5" y2="37" gradientUnits="userSpaceOnUse">
<stop stop-color="#D0E85E"/>
<stop offset="1" stop-color="#B7D239"/>
</linearGradient>
</defs>
</svg>
