<svg width="57" height="76" viewBox="0 0 57 76" fill="none" xmlns="http://www.w3.org/2000/svg">
<path d="M54.7941 37.5086C53.3158 36.2275 51.1724 36.1714 49.6359 37.3157C49.0307 36.4948 46.0842 34.1551 43.053 37.2504L35.1569 46.0921L29.0386 45.7024L31.4272 43.6878C31.4335 43.6827 31.4397 43.6776 31.4453 43.6719C33.1259 42.1907 34.1318 40.4819 34.4353 38.5921C34.6443 37.2879 34.1657 35.9989 33.1547 35.1434C32.1313 34.2771 30.7655 34.019 29.5019 34.4535L20.384 37.5863C17.4563 38.5916 14.915 40.5795 13.2276 43.1835L8.42032 50.6006L2.83656 55.559C0.716872 57.4408 0.386288 60.6956 2.08385 62.9682L9.44145 72.8169C10.3168 73.989 11.7634 75 13.8001 75C14.9817 75 16.1249 74.6142 17.0816 73.8824L19.7088 71.8724C20.8751 70.9794 21.6194 69.6836 21.8047 68.2233C21.9895 66.7625 21.5928 65.3209 20.6864 64.163L10.583 51.2593L15.0461 44.3714C16.4707 42.1742 18.6159 40.4961 21.0865 39.6474L30.2044 36.5152C30.7406 36.3308 31.321 36.4409 31.7561 36.8096C32.185 37.1727 32.3806 37.6958 32.2924 38.2461C32.0726 39.619 31.3086 40.8915 30.0224 42.0278L25.5694 45.7835C25.2298 46.07 25.0981 46.5352 25.2366 46.9579C25.375 47.3811 25.7559 47.6767 26.1984 47.705L36.9381 48.3892C39.2861 48.5362 41.6216 47.7033 43.3475 46.0984L50.7604 39.2043C51.4945 38.5224 52.6191 38.5019 53.3769 39.1583C54.1776 39.8522 54.2889 41.0469 53.6295 41.8781L46.4329 50.9473C44.7088 53.1195 42.4077 54.7245 39.7777 55.5885L23.0451 61.0847C22.4755 61.272 22.1647 61.8869 22.3512 62.4588C22.5009 62.9183 23.0496 63.3813 23.7198 63.1555L40.4524 57.6593C43.4865 56.6625 46.1413 54.8113 48.1299 52.3049L55.327 43.2351C56.7155 41.4855 56.4815 38.97 54.7941 37.5086ZM19.6517 67.9476C19.5404 68.8247 19.0934 69.6031 18.3932 70.1392L15.7661 72.1498C15.0693 72.6831 14.2069 72.9094 13.3389 72.7891C12.471 72.6677 11.703 72.2133 11.1774 71.5098L3.81984 61.6606C2.79588 60.2894 2.99536 58.3264 4.27361 57.1912L9.10691 52.9L18.9798 65.5093C19.5245 66.2048 19.763 67.0705 19.6517 67.9476ZM41.8731 44.5002C40.8011 45.4976 39.4138 46.0972 37.9688 46.2073L44.6692 38.705C46.1504 37.2232 47.8338 38.5348 48.0293 38.7743L41.8731 44.5002Z" fill="#FF9573"/>
<path d="M17.4346 22.3916C20.7027 26.1863 25.2366 29.2313 28.4647 31.118C29.5862 31.7735 30.844 32.1015 32.1013 32.1015C33.3586 32.1015 34.6164 31.7735 35.7379 31.118C40.9466 28.0741 49.8284 21.8444 50.7845 14.3296C51.2443 10.7217 49.8381 7.28133 46.6071 4.10509C43.1924 0.749427 37.8719 0.0300758 33.6683 2.35633C32.7014 2.89178 31.5006 2.89178 30.5343 2.35633C26.3313 0.0300758 21.0101 0.749427 17.5955 4.10509C17.1682 4.52616 17.1682 5.20738 17.5955 5.62789C18.0233 6.0484 18.717 6.0484 19.1448 5.62789C21.867 2.95177 26.1088 2.3782 29.459 4.23292C31.0888 5.13449 33.1133 5.13449 34.743 4.23292C38.0938 2.37764 42.3356 2.95177 45.0578 5.62789C47.7868 8.31018 48.9819 11.1478 48.6111 14.0627C47.7389 20.9148 38.5353 26.9785 34.6187 29.2678C33.0659 30.175 31.1367 30.175 29.5839 29.2678C26.5001 27.4652 22.1784 24.5676 19.1066 21.0006C15.5402 16.8588 14.6377 12.9094 16.4238 9.26109C16.6862 8.72564 16.4574 8.08198 15.9121 7.82407C15.3667 7.56616 14.7124 7.79155 14.45 8.32756C13.2647 10.748 13.0216 13.2879 13.7273 15.876C14.3126 18.0223 15.5596 20.2145 17.4346 22.3916Z" fill="#FF9573"/>
<path d="M14.1377 70.7102C12.2155 70.7102 10.6522 69.1462 10.6522 67.2246C10.6522 65.3025 12.2155 63.7391 14.1377 63.7391C16.0598 63.7391 17.6232 65.3025 17.6232 67.2246C17.6232 69.1462 16.0598 70.7102 14.1377 70.7102ZM14.1377 65.9611C13.4414 65.9611 12.8747 66.5278 12.8747 67.2241C12.8747 67.9209 13.4414 68.4876 14.1377 68.4876C14.8345 68.4876 15.4006 67.9209 15.4006 67.2241C15.4012 66.5278 14.8345 65.9611 14.1377 65.9611Z" fill="#FF9573"/>
<path d="M54.7941 37.5086C53.3158 36.2275 51.1724 36.1714 49.6359 37.3157C49.0307 36.4948 46.0842 34.1551 43.053 37.2504L35.1569 46.0921L29.0386 45.7024L31.4272 43.6878C31.4335 43.6827 31.4397 43.6776 31.4453 43.6719C33.1259 42.1907 34.1318 40.4819 34.4353 38.5921C34.6443 37.2879 34.1657 35.9989 33.1547 35.1434C32.1313 34.2771 30.7655 34.019 29.5019 34.4535L20.384 37.5863C17.4563 38.5916 14.915 40.5795 13.2276 43.1835L8.42032 50.6006L2.83656 55.559C0.716872 57.4408 0.386288 60.6956 2.08385 62.9682L9.44145 72.8169C10.3168 73.989 11.7634 75 13.8001 75C14.9817 75 16.1249 74.6142 17.0816 73.8824L19.7088 71.8724C20.8751 70.9794 21.6194 69.6836 21.8047 68.2233C21.9895 66.7625 21.5928 65.3209 20.6864 64.163L10.583 51.2593L15.0461 44.3714C16.4707 42.1742 18.6159 40.4961 21.0865 39.6474L30.2044 36.5152C30.7406 36.3308 31.321 36.4409 31.7561 36.8096C32.185 37.1727 32.3806 37.6958 32.2924 38.2461C32.0726 39.619 31.3086 40.8915 30.0224 42.0278L25.5694 45.7835C25.2298 46.07 25.0981 46.5352 25.2366 46.9579C25.375 47.3811 25.7559 47.6767 26.1984 47.705L36.9381 48.3892C39.2861 48.5362 41.6216 47.7033 43.3475 46.0984L50.7604 39.2043C51.4945 38.5224 52.6191 38.5019 53.3769 39.1583C54.1776 39.8522 54.2889 41.0469 53.6295 41.8781L46.4329 50.9473C44.7088 53.1195 42.4077 54.7245 39.7777 55.5885L23.0451 61.0847C22.4755 61.272 22.1647 61.8869 22.3512 62.4588C22.5009 62.9183 23.0496 63.3813 23.7198 63.1555L40.4524 57.6593C43.4865 56.6625 46.1413 54.8113 48.1299 52.3049L55.327 43.2351C56.7155 41.4855 56.4815 38.97 54.7941 37.5086ZM19.6517 67.9476C19.5404 68.8247 19.0934 69.6031 18.3932 70.1392L15.7661 72.1498C15.0693 72.6831 14.2069 72.9094 13.3389 72.7891C12.471 72.6677 11.703 72.2133 11.1774 71.5098L3.81984 61.6606C2.79588 60.2894 2.99536 58.3264 4.27361 57.1912L9.10691 52.9L18.9798 65.5093C19.5245 66.2048 19.763 67.0705 19.6517 67.9476ZM41.8731 44.5002C40.8011 45.4976 39.4138 46.0972 37.9688 46.2073L44.6692 38.705C46.1504 37.2232 47.8338 38.5348 48.0293 38.7743L41.8731 44.5002Z" stroke="#FF9573" stroke-width="0.999999"/>
<path d="M17.4346 22.3916C20.7027 26.1863 25.2366 29.2313 28.4647 31.118C29.5862 31.7735 30.844 32.1015 32.1013 32.1015C33.3586 32.1015 34.6164 31.7735 35.7379 31.118C40.9466 28.0741 49.8284 21.8444 50.7845 14.3296C51.2443 10.7217 49.8381 7.28133 46.6071 4.10509C43.1924 0.749427 37.8719 0.0300758 33.6683 2.35633C32.7014 2.89178 31.5006 2.89178 30.5343 2.35633C26.3313 0.0300758 21.0101 0.749427 17.5955 4.10509C17.1682 4.52616 17.1682 5.20738 17.5955 5.62789C18.0233 6.0484 18.717 6.0484 19.1448 5.62789C21.867 2.95177 26.1088 2.3782 29.459 4.23292C31.0888 5.13449 33.1133 5.13449 34.743 4.23292C38.0938 2.37764 42.3356 2.95177 45.0578 5.62789C47.7868 8.31018 48.9819 11.1478 48.6111 14.0627C47.7389 20.9148 38.5353 26.9785 34.6187 29.2678C33.0659 30.175 31.1367 30.175 29.5839 29.2678C26.5001 27.4652 22.1784 24.5676 19.1066 21.0006C15.5402 16.8588 14.6377 12.9094 16.4238 9.26109C16.6862 8.72564 16.4574 8.08198 15.9121 7.82407C15.3667 7.56616 14.7124 7.79155 14.45 8.32756C13.2647 10.748 13.0216 13.2879 13.7273 15.876C14.3126 18.0223 15.5596 20.2145 17.4346 22.3916Z" stroke="#FF9573" stroke-width="0.999999"/>
<path d="M14.1377 70.7102C12.2155 70.7102 10.6522 69.1462 10.6522 67.2246C10.6522 65.3025 12.2155 63.7391 14.1377 63.7391C16.0598 63.7391 17.6232 65.3025 17.6232 67.2246C17.6232 69.1462 16.0598 70.7102 14.1377 70.7102ZM14.1377 65.9611C13.4414 65.9611 12.8747 66.5278 12.8747 67.2241C12.8747 67.9209 13.4414 68.4876 14.1377 68.4876C14.8345 68.4876 15.4006 67.9209 15.4006 67.2241C15.4012 66.5278 14.8345 65.9611 14.1377 65.9611Z" stroke="#FF9573" stroke-width="0.999999"/>
</svg>
