<svg width="84" height="68" viewBox="0 0 84 68" fill="none" xmlns="http://www.w3.org/2000/svg">
<path d="M82.7605 15.4487L56.3371 5.43222C55.6964 5.18945 54.9792 5.50892 54.7351 6.14533C54.4909 6.78237 54.8122 7.49548 55.4529 7.73825L78.8348 16.6017L62.6485 22.7382L42.2916 13.5737C41.6668 13.2923 40.9318 13.568 40.6494 14.1886C40.3663 14.8097 40.6436 15.5406 41.2677 15.822L59.3812 23.9768L41.7797 30.649L4.72457 16.6017L41.7797 2.55443L50.9113 6.01665C51.5507 6.25879 52.2686 5.93995 52.5134 5.30291C52.7575 4.6665 52.4362 3.95339 51.7955 3.71062L42.2221 0.0810568C41.9371 -0.0267017 41.6222 -0.0273357 41.3372 0.0810568L0.798796 15.4487C0.318116 15.6312 0 16.0902 0 16.6017V22.2368C0 22.7484 0.318116 23.2073 0.798796 23.3899L13.4578 28.1883V32.4644C13.4578 33.1458 14.013 33.6986 14.6984 33.6986C15.3843 33.6986 15.9396 33.1458 15.9396 32.4644V29.1296L41.3372 38.7575C41.48 38.8114 41.6298 38.8386 41.7797 38.8386C41.9295 38.8386 42.0793 38.8114 42.2221 38.7575L61.3664 31.5003V51.0287C55.356 54.1657 48.6163 55.8467 41.7797 55.8467C32.4491 55.8467 23.2971 52.7192 15.9396 47.0277V37.4004C15.9396 36.719 15.3843 36.1662 14.6984 36.1662C14.013 36.1662 13.4578 36.719 13.4578 37.4004V47.6254C13.4578 48 13.6286 48.3544 13.9225 48.5882C21.7964 54.8604 31.6898 58.3144 41.7797 58.3144C48.5844 58.3144 55.2986 56.7411 61.3664 53.7943V58.7885C59.3666 59.3318 57.892 61.1529 57.892 63.3112C57.892 65.8962 60.0073 68 62.607 68C65.2074 68 67.3227 65.8962 67.3227 63.3112C67.3227 61.1529 65.8481 59.3318 63.8482 58.7885V52.491C65.8711 51.3469 67.8091 50.0449 69.6374 48.5882C69.9313 48.3544 70.1028 48 70.1028 47.6254V28.1877L82.7605 23.3892C83.2412 23.2073 83.5593 22.7484 83.5593 22.2362V16.6017C83.5593 16.0902 83.2412 15.6312 82.7605 15.4487ZM64.8408 63.3112C64.8408 64.5352 63.8387 65.5317 62.607 65.5317C61.376 65.5317 60.3738 64.5352 60.3738 63.3112C60.3738 62.0866 61.376 61.0901 62.607 61.0901C63.8387 61.0901 64.8408 62.0866 64.8408 63.3112ZM2.48182 18.393L40.5384 32.82V35.8132L2.48182 21.3862V18.393ZM43.0209 35.8132V32.82L61.3664 25.8651V28.8589L43.0209 35.8132ZM67.6204 47.027C66.4098 47.9639 65.1494 48.8298 63.8482 49.6246V30.559L67.6204 29.129V47.027ZM63.8482 27.9176V24.9245L81.0775 18.393V21.3862L63.8482 27.9176Z" fill="#FF9573"/>
</svg>
