<svg width="74" height="74" viewBox="0 0 74 74" fill="none" xmlns="http://www.w3.org/2000/svg">
<path fill-rule="evenodd" clip-rule="evenodd" d="M36.5207 0C38.2619 0 39.4634 1.37022 40.6536 2.72746C41.3584 3.53142 42.057 4.32803 42.4847 4.40538C42.9225 4.48499 43.8627 3.96388 44.7972 3.4456C46.3432 2.58801 47.8807 1.73607 49.455 2.32097C51.0468 2.91264 51.643 4.57814 52.237 6.23799C52.5889 7.22035 52.939 8.19933 53.2739 8.39523C53.6093 8.59114 54.6406 8.41104 55.6701 8.23151C57.3988 7.92946 59.1253 7.62798 60.4071 8.70688C61.6822 9.7807 61.6742 11.5337 61.6663 13.2867C61.6618 14.3216 61.6567 15.3564 61.9073 15.6528C62.1579 15.9498 63.1795 16.1214 64.2017 16.2931C65.9366 16.585 67.6744 16.8768 68.5246 18.325C69.3726 19.7697 68.7877 21.4177 68.2005 23.0714C67.8481 24.0633 67.4945 25.0587 67.6371 25.4409C67.7796 25.822 68.6842 26.347 69.5932 26.8749C71.1341 27.7692 72.6841 28.6686 72.9912 30.3572C73.2933 32.0171 72.1942 33.3974 71.0855 34.7908C70.4055 35.6456 69.7193 36.5077 69.7193 37C69.7193 37.4929 70.4055 38.355 71.0855 39.2097C72.1942 40.6026 73.2933 41.9829 72.9912 43.6428C72.6841 45.3314 71.1341 46.2314 69.5932 47.1257C68.6842 47.653 67.7796 48.178 67.6371 48.5597C67.4945 48.9419 67.8481 49.9372 68.2005 50.9292C68.7877 52.5828 69.3726 54.2308 68.5246 55.675C67.6744 57.1237 65.9366 57.4156 64.2017 57.7069C63.1795 57.8791 62.1579 58.0508 61.9073 58.3472C61.6567 58.6441 61.6618 59.679 61.6663 60.7139C61.6742 62.4669 61.6822 64.2199 60.4071 65.2937C59.1253 66.3726 57.3988 66.0711 55.6701 65.7691C54.6406 65.5895 53.6093 65.4094 53.2739 65.6053C52.939 65.8012 52.5889 66.7802 52.237 67.7626C51.643 69.4224 51.0468 71.0879 49.455 71.6796C47.8807 72.2645 46.3432 71.412 44.7972 70.555C43.8627 70.0367 42.9231 69.5156 42.4847 69.5952C42.057 69.6725 41.3584 70.4691 40.6536 71.2725C39.4634 72.6298 38.2619 74 36.5207 74C34.7801 74 33.5786 72.6298 32.3879 71.2725C31.6836 70.4686 30.985 69.672 30.5568 69.5946C30.1189 69.515 29.1793 70.0361 28.2443 70.5544C26.6982 71.412 25.1613 72.2639 23.587 71.679C21.9946 71.0874 21.399 69.4219 20.8044 67.762C20.4531 66.7802 20.1024 65.8007 19.7675 65.6048C19.4327 65.4089 18.4014 65.589 17.3713 65.7691C15.6426 66.0705 13.9161 66.372 12.6343 65.2931C11.3593 64.2193 11.3672 62.4663 11.3751 60.7133C11.3802 59.6784 11.3847 58.6436 11.1341 58.3472C10.8835 58.0502 9.86248 57.8786 8.83973 57.7069C7.10479 57.4156 5.36702 57.1232 4.51681 55.675C3.66942 54.2303 4.25433 52.5823 4.84151 50.9286C5.19392 49.9367 5.54691 48.9413 5.40436 48.5591C5.26237 48.178 4.35785 47.653 3.44824 47.1251C1.90789 46.2308 0.35736 45.3314 0.0507619 43.6428C-0.251311 41.9829 0.847239 40.602 1.95597 39.2092C2.63649 38.3544 3.32265 37.4923 3.32265 36.9994C3.32265 36.5071 2.63649 35.645 1.95597 34.7903C0.847239 33.3969 -0.251311 32.0171 0.0507619 30.3566C0.35736 28.668 1.90789 27.7686 3.44824 26.8743C4.35785 26.3465 5.26237 25.8214 5.40436 25.4403C5.54691 25.0581 5.19392 24.0628 4.84151 23.0708C4.25433 21.4172 3.66885 19.7692 4.51681 18.325C5.36702 16.8763 7.10479 16.5844 8.83973 16.2931C9.86248 16.1209 10.8835 15.9492 11.1341 15.6528C11.3847 15.3559 11.3802 14.321 11.3751 13.2861C11.3672 11.5331 11.3593 9.77957 12.6343 8.70688C13.9161 7.62798 15.6426 7.92889 17.3713 8.23094C18.4014 8.41048 19.4327 8.59058 19.7675 8.39467C20.1024 8.19933 20.4531 7.21979 20.8044 6.23743C21.3984 4.57814 21.9952 2.91208 23.587 2.3204C25.1613 1.7355 26.6982 2.58801 28.2443 3.44504C29.1793 3.96332 30.1189 4.48442 30.5568 4.40482C30.985 4.32747 31.6836 3.53085 32.3879 2.72746C33.5786 1.37022 34.7801 0 36.5207 0V0ZM54.4663 18.6699C53.6665 18.6699 53.0182 19.3169 53.0182 20.1152C53.0182 20.4709 53.1472 20.7967 53.361 21.0485V21.0491L53.3604 21.0485L53.365 21.0536C53.3944 21.088 53.4255 21.1208 53.4577 21.1518C57.3524 25.2958 59.7374 30.8698 59.7374 37C59.7374 43.3989 57.1392 49.1914 52.9379 53.3845C48.7366 57.5782 42.9321 60.1713 36.5207 60.1713C33.776 60.1713 31.1428 59.6959 28.6991 58.8231C28.6555 58.805 28.6102 58.7892 28.5644 58.7751L28.561 58.7734V58.774C28.4281 58.7339 28.2867 58.7119 28.1407 58.7119C27.3414 58.7119 26.6926 59.3589 26.6926 60.1572C26.6926 60.8121 27.1293 61.3648 27.7272 61.5426C30.4747 62.5233 33.4355 63.058 36.5207 63.058C43.7303 63.058 50.2577 60.1408 54.9822 55.4255C59.7074 50.7096 62.6297 44.1955 62.6297 37C62.6297 30.1144 59.9534 23.8533 55.5836 19.195C55.3177 18.8743 54.9161 18.6699 54.4663 18.6699ZM50.0959 15.0013C49.2966 15.0013 48.6478 15.6483 48.6478 16.4466C48.6478 17.2444 49.2966 17.892 50.0959 17.892C50.8958 17.892 51.544 17.2444 51.544 16.4466C51.544 15.6483 50.8958 15.0013 50.0959 15.0013ZM45.3957 12.4867C42.625 11.4874 39.637 10.942 36.5207 10.942C29.3111 10.942 22.7843 13.8586 18.0592 18.5745C13.3346 23.2899 10.4118 29.8045 10.4118 37C10.4118 43.8709 13.0767 50.1202 17.4301 54.7757C17.696 55.0929 18.0954 55.2951 18.5423 55.2951C19.3421 55.2951 19.9904 54.6481 19.9904 53.8497C19.9904 53.4952 19.8626 53.1706 19.6499 52.9193V52.9182L19.6442 52.912C19.6159 52.8787 19.586 52.8471 19.5548 52.8171C15.6777 48.676 13.3041 43.1149 13.3041 37C13.3041 30.6011 15.9028 24.808 20.1041 20.6155C24.3054 16.4218 30.1099 13.8287 36.5207 13.8287C39.2914 13.8287 41.9484 14.3131 44.4119 15.2018H44.4125C44.5867 15.2757 44.7779 15.3164 44.9793 15.3164C45.7792 15.3164 46.4275 14.6694 46.4275 13.871C46.4275 13.2173 45.9925 12.6651 45.3957 12.4867ZM22.9455 56.108C22.1462 56.108 21.4974 56.7551 21.4974 57.5534C21.4974 58.3517 22.1462 58.9987 22.9455 58.9987C23.7454 58.9987 24.3937 58.3517 24.3937 57.5534C24.3937 56.7551 23.7454 56.108 22.9455 56.108ZM28.0898 22.7953C26.4296 22.7953 24.9265 23.4666 23.8382 24.5528C22.7504 25.6391 22.0772 27.1391 22.0772 28.7962C22.0772 30.4526 22.7504 31.9533 23.8382 33.0389C24.9265 34.1252 26.4296 34.797 28.0898 34.797C29.7501 34.797 31.2531 34.1252 32.3415 33.0389C33.4293 31.9533 34.1024 30.4526 34.1024 28.7962C34.1024 27.1391 33.4293 25.6391 32.3415 24.5528C31.2531 23.4666 29.7501 22.7953 28.0898 22.7953ZM30.2965 26.5938C29.732 26.0303 28.9519 25.6814 28.0898 25.6814C27.2283 25.6814 26.4477 26.0303 25.8831 26.5938C25.3186 27.1572 24.9695 27.9357 24.9695 28.7962C24.9695 29.656 25.3186 30.4351 25.8831 30.9986C26.4477 31.5614 27.2283 31.9104 28.0898 31.9104C28.9519 31.9104 29.732 31.562 30.2965 30.9986C30.8611 30.4351 31.2101 29.656 31.2101 28.7962C31.2101 27.9357 30.8611 27.1572 30.2965 26.5938ZM43.749 23.4491L26.8866 48.9724C26.4499 49.6358 26.6343 50.5267 27.299 50.9625C27.9637 51.3984 28.8563 51.2143 29.293 50.5509L46.1554 25.0276C46.5921 24.3642 46.4077 23.4733 45.743 23.0375C45.0783 22.6016 44.1857 22.7857 43.749 23.4491ZM44.9522 39.203C43.2919 39.203 41.7883 39.8748 40.7005 40.9605C39.6127 42.0467 38.9396 43.5474 38.9396 45.2038C38.9396 46.8609 39.6127 48.3609 40.7005 49.4472C41.7889 50.5329 43.2919 51.2047 44.9522 51.2047C46.6124 51.2047 48.1155 50.5329 49.2033 49.4472C50.2916 48.3609 50.9648 46.8609 50.9648 45.2038C50.9648 43.5468 50.2916 42.0467 49.2033 40.9605C48.1155 39.8748 46.6124 39.203 44.9522 39.203ZM47.1583 43.0014C46.5943 42.4386 45.8137 42.0896 44.9522 42.0896C44.0901 42.0896 43.31 42.438 42.7455 43.0014C42.1809 43.5649 41.8313 44.344 41.8313 45.2038C41.8313 46.0643 42.1809 46.8428 42.7455 47.4062C43.31 47.9697 44.0901 48.318 44.9522 48.318C45.8137 48.318 46.5943 47.9697 47.1583 47.4062C47.7234 46.8428 48.0725 46.0643 48.0725 45.2038C48.0725 44.344 47.7234 43.5654 47.1583 43.0014ZM38.4848 4.62218C37.7273 3.75838 36.9631 2.88667 36.5213 2.88667C36.0789 2.88667 35.3147 3.75838 34.5572 4.62218C33.5203 5.8044 32.4919 6.97702 31.0653 7.2356C29.6172 7.49812 28.2267 6.72691 26.8436 5.95966C25.8797 5.425 24.9209 4.89374 24.5928 5.01569C24.2692 5.13594 23.8976 6.17363 23.5276 7.20737C23.001 8.67809 22.4766 10.1443 21.2253 10.8754C19.9655 11.6122 18.419 11.3423 16.8747 11.0724C15.8083 10.8867 14.7426 10.7004 14.4994 10.9059C14.2471 11.1182 14.2516 12.1971 14.2567 13.2754C14.264 14.8421 14.2708 16.4088 13.3375 17.5137C12.4069 18.6152 10.8615 18.8749 9.31434 19.1346C8.24351 19.3147 7.16984 19.4948 7.00297 19.7799C6.83666 20.0627 7.19983 21.0863 7.56469 22.1127C8.08964 23.5913 8.61629 25.0745 8.10491 26.4441C7.60033 27.7963 6.25118 28.5794 4.89468 29.3669C3.92737 29.9281 2.95383 30.4933 2.88652 30.8648C2.81807 31.2413 3.51385 32.1153 4.21586 32.9977C5.21146 34.2483 6.21554 35.5095 6.21554 37C6.21554 38.491 5.21146 39.7517 4.21586 41.0028C3.51385 41.8847 2.81807 42.7587 2.88652 43.1358C2.95383 43.5073 3.92737 44.0719 4.89468 44.6336C6.25118 45.4206 7.60033 46.2037 8.10491 47.5559C8.61629 48.9261 8.08964 50.4092 7.56469 51.8878C7.19983 52.9142 6.83666 53.9373 7.00297 54.2207C7.16984 54.5052 8.24294 54.6859 9.31434 54.8654C10.862 55.1257 12.4069 55.3848 13.3375 56.4869C14.2708 57.5912 14.264 59.1579 14.2567 60.7251C14.2516 61.8035 14.2471 62.8818 14.4994 63.0947C14.7432 63.2996 15.8083 63.1139 16.8747 62.9276C18.419 62.6582 19.9655 62.3878 21.2253 63.1246C22.4766 63.8557 23.0015 65.3219 23.5276 66.7926C23.8976 67.8264 24.2692 68.8646 24.5928 68.9843C24.9209 69.1063 25.8797 68.575 26.8436 68.0403C28.2267 67.2737 29.6172 66.5024 31.0653 66.765C32.4925 67.023 33.5203 68.1956 34.5572 69.3784C35.3147 70.2422 36.0789 71.1139 36.5213 71.1139C36.9631 71.1139 37.7273 70.2422 38.4848 69.3784C39.5216 68.1956 40.5501 67.023 41.9761 66.765C43.4243 66.5024 44.8153 67.2737 46.1984 68.0403C47.1623 68.575 48.1211 69.1063 48.4492 68.9843C48.7728 68.8646 49.1444 67.8264 49.5144 66.7926C50.041 65.3219 50.5654 63.8563 51.8161 63.1246C53.0765 62.3878 54.6225 62.6577 56.1668 62.9276C57.2337 63.1139 58.2988 63.3002 58.5432 63.0947C58.7949 62.8818 58.7904 61.8035 58.7853 60.7251C58.778 59.1584 58.7712 57.5912 59.7045 56.4869C60.6351 55.3848 62.18 55.1257 63.7271 54.8654C64.7985 54.6859 65.8722 54.5052 66.039 54.2207C66.2053 53.9373 65.8422 52.9142 65.4773 51.8878C64.9524 50.4092 64.4257 48.9261 64.9371 47.5559C65.4411 46.2037 66.7908 45.4206 68.1468 44.6336C69.1146 44.0719 70.0876 43.5073 70.1555 43.1358C70.2239 42.7587 69.5281 41.8847 68.8261 41.0028C67.8305 39.7517 66.8265 38.491 66.8265 37C66.8265 35.5095 67.8305 34.2483 68.8261 32.9977C69.5281 32.1153 70.2239 31.2413 70.1555 30.8648C70.0876 30.4933 69.1146 29.9281 68.1468 29.3669C66.7908 28.5794 65.4411 27.7963 64.9371 26.4441C64.4257 25.0745 64.9524 23.5913 65.4773 22.1127C65.8422 21.0863 66.2053 20.0627 66.039 19.7799C65.8722 19.4948 64.7985 19.3147 63.7271 19.1346C62.18 18.8749 60.6351 18.6152 59.7045 17.5137C58.7712 16.4088 58.778 14.8421 58.7853 13.2754C58.7904 12.1971 58.7949 11.1182 58.5432 10.9059C58.2988 10.7004 57.2337 10.8867 56.1668 11.0724C54.6225 11.3423 53.0765 11.6122 51.8167 10.8754C50.5654 10.1443 50.0405 8.67809 49.5144 7.20737C49.1444 6.17363 48.7728 5.13594 48.4492 5.01569C48.1211 4.89374 47.1623 5.425 46.1984 5.95966C44.8147 6.72691 43.4243 7.49812 41.9761 7.2356C40.5495 6.97702 39.5216 5.8044 38.4848 4.62218Z" fill="#FF9573"/>
</svg>
